<svg width="109" height="92" viewBox="0 0 109 92" fill="none" xmlns="http://www.w3.org/2000/svg">
<path d="M1.49253 17.3204C2.2797 22.9906 2.46223 28.7297 2.48505 34.4457C2.46223 40.1618 2.29111 45.9009 1.49253 51.571C0.693941 45.9009 0.522817 40.1618 0.5 34.4457C0.522817 28.7297 0.70535 22.9906 1.49253 17.3204Z" fill="white"/>
<path d="M8.9764 10.3762C9.76357 18.3764 9.94611 26.4226 9.96892 34.4457C9.94611 42.4804 9.77498 50.5265 8.9764 58.5153C8.17781 50.5151 8.00669 42.4689 7.98387 34.4457C8.00669 26.4111 8.18922 18.3764 8.9764 10.3762Z" fill="white"/>
<path d="M16.4603 5.38322C17.8293 24.7238 17.8407 44.1562 16.4603 63.4968C15.0799 44.1562 15.0913 24.7238 16.4603 5.38322Z" fill="white"/>
<path d="M23.9327 2.36449C25.3017 23.7252 25.3131 45.1663 23.9327 66.527C22.5523 45.1663 22.5637 23.7252 23.9327 2.36449Z" fill="white"/>
<path d="M31.4166 0C32.7856 22.9332 32.797 45.9583 31.4166 68.8915C30.0362 45.9583 30.0476 22.9332 31.4166 0Z" fill="white"/>
<path d="M38.9005 0C40.2695 22.9332 40.2809 45.9583 38.9005 68.8915C37.5201 45.9583 37.5315 22.9332 38.9005 0Z" fill="white"/>
<path d="M46.3729 0C47.7419 22.9332 47.7534 45.9583 46.3729 68.8915C44.9925 45.9583 45.0039 22.9332 46.3729 0Z" fill="white"/>
<path d="M53.8568 2.81213C55.2258 23.8629 55.2372 45.0056 53.8568 66.0679C52.4764 45.0171 52.4878 23.8744 53.8568 2.81213Z" fill="white"/>
<path d="M61.3407 5.23401C62.7097 24.6779 62.7211 44.2136 61.3407 63.6575C59.9603 44.2136 59.9717 24.6779 61.3407 5.23401Z" fill="white"/>
<path d="M68.8132 10.5254C69.6003 18.4797 69.7829 26.4685 69.8057 34.4457C69.7829 42.423 69.6117 50.4232 68.8132 58.3661C68.0146 50.4232 67.8435 42.423 67.8206 34.4457C67.8435 26.4685 68.026 18.4682 68.8132 10.5254Z" fill="white"/>
<path d="M76.297 13.3949C77.0842 20.3851 77.2667 27.4212 77.2896 34.4457C77.2667 41.4703 77.0956 48.5064 76.297 55.4966C75.4984 48.5064 75.3273 41.4703 75.3045 34.4457C75.3273 27.4212 75.5099 20.3851 76.297 13.3949Z" fill="white"/>
<path d="M83.7809 14.4509C84.5681 21.0852 84.7506 27.7655 84.7734 34.4457C84.7506 41.1145 84.5795 47.8062 83.7809 54.4406C82.9823 47.8062 82.8112 41.1145 82.7884 34.4457C82.8112 27.777 82.9937 21.0852 83.7809 14.4509Z" fill="white"/>
<path d="M91.2534 10.2155C92.0405 18.2616 92.2231 26.3537 92.2459 34.4343C92.2231 42.5148 92.052 50.6069 91.2534 58.653C90.4548 50.6069 90.2837 42.5148 90.2608 34.4343C90.2837 26.3537 90.4662 18.2616 91.2534 10.2155Z" fill="white"/>
<path d="M98.7372 3.42047C100.106 24.0695 100.118 44.8105 98.7372 65.4595C97.3568 44.8105 97.3682 24.0695 98.7372 3.42047Z" fill="white"/>
<path d="M106.221 0C107.59 22.9332 107.602 45.9583 106.221 68.8915C104.841 45.9583 104.852 22.9332 106.221 0Z" fill="white"/>
<path d="M0.5 91.4809V77.1471H9.45509V79.6043H3.18653V83.0649H8.96663V85.5221H3.18653V91.4809H0.5Z" fill="white"/>
<path d="M11.4533 91.4809V81.3244H14.0177V91.4809H11.4533ZM12.7355 80.1367C12.2742 80.1367 11.8807 79.9865 11.5551 79.6862C11.243 79.3859 11.0869 78.99 11.0869 78.4986C11.0869 78.0071 11.243 77.6112 11.5551 77.3109C11.8807 77.0106 12.2742 76.8604 12.7355 76.8604C13.2104 76.8604 13.6039 77.0106 13.9159 77.3109C14.228 77.6112 14.3841 78.0071 14.3841 78.4986C14.3841 78.99 14.228 79.3859 13.9159 79.6862C13.6039 79.9865 13.2104 80.1367 12.7355 80.1367Z" fill="white"/>
<path d="M21.052 91.7676C19.7359 91.7676 18.6572 91.4809 17.816 90.9076C16.9748 90.3342 16.4659 89.5151 16.2895 88.4503L18.6504 87.836C18.7454 88.3138 18.9015 88.6892 19.1185 88.9623C19.3492 89.2353 19.6274 89.4332 19.953 89.5561C20.2922 89.6653 20.6586 89.7199 21.052 89.7199C21.649 89.7199 22.09 89.6175 22.3749 89.4128C22.6599 89.1943 22.8023 88.9281 22.8023 88.6142C22.8023 88.3002 22.6667 88.0613 22.3953 87.8975C22.1239 87.72 21.6897 87.5767 21.0927 87.4674L20.5229 87.3651C19.8173 87.2285 19.1728 87.0443 18.5894 86.8122C18.0059 86.5665 17.5378 86.232 17.1851 85.8088C16.8323 85.3856 16.6559 84.8396 16.6559 84.1707C16.6559 83.1605 17.0222 82.3892 17.7549 81.8568C18.4876 81.3107 19.451 81.0377 20.645 81.0377C21.7712 81.0377 22.7074 81.2902 23.4536 81.7953C24.1999 82.3004 24.6883 82.9625 24.919 83.7816L22.5378 84.5188C22.4292 84 22.2053 83.6314 21.8661 83.413C21.5405 83.1946 21.1334 83.0854 20.645 83.0854C20.1565 83.0854 19.7834 83.1741 19.5256 83.3516C19.2678 83.5154 19.1389 83.7475 19.1389 84.0478C19.1389 84.3754 19.2746 84.6212 19.5459 84.785C19.8173 84.9351 20.1837 85.0512 20.645 85.1331L21.2149 85.2355C21.9747 85.372 22.6599 85.5563 23.2705 85.7883C23.8946 86.0068 24.3831 86.3276 24.7358 86.7508C25.1022 87.1603 25.2853 87.72 25.2853 88.4299C25.2853 89.4947 24.8986 90.3206 24.1253 90.9076C23.3654 91.4809 22.341 91.7676 21.052 91.7676Z" fill="white"/>
<path d="M27.5325 91.4809V77.1471H30.097V82.5735H30.4633C30.5719 82.355 30.7415 82.1366 30.9721 81.9182C31.2028 81.6998 31.5081 81.5223 31.888 81.3858C32.2815 81.2356 32.7767 81.1606 33.3737 81.1606C34.1607 81.1606 34.8459 81.3448 35.4293 81.7134C36.0263 82.0684 36.4876 82.5666 36.8133 83.2082C37.1389 83.8362 37.3017 84.5734 37.3017 85.4198V91.4809H34.7373V85.6245C34.7373 84.8601 34.5474 84.2867 34.1675 83.9045C33.8011 83.5222 33.2719 83.3311 32.58 83.3311C31.793 83.3311 31.1824 83.5973 30.7482 84.1297C30.3141 84.6485 30.097 85.3788 30.097 86.3207V91.4809H27.5325Z" fill="white"/>
<path d="M50.1058 91.7676C49.0068 91.7676 48.0367 91.5696 47.1954 91.1738C46.3542 90.7779 45.6961 90.2113 45.2212 89.4742C44.7463 88.737 44.5089 87.8497 44.5089 86.8122V86.2388H47.1547V86.8122C47.1547 87.6722 47.4193 88.3206 47.9485 88.7575C48.4776 89.1807 49.1968 89.3923 50.1058 89.3923C51.0285 89.3923 51.7137 89.208 52.1614 88.8394C52.6228 88.4708 52.8534 87.9998 52.8534 87.4265C52.8534 87.0306 52.7381 86.7098 52.5074 86.4641C52.2903 86.2184 51.9647 86.0204 51.5305 85.8702C51.1099 85.7064 50.5943 85.5563 49.9837 85.4198L49.5156 85.3174C48.5387 85.0989 47.6975 84.8259 46.9919 84.4983C46.2999 84.157 45.764 83.7133 45.3841 83.1673C45.0177 82.6212 44.8345 81.9114 44.8345 81.0377C44.8345 80.164 45.0381 79.42 45.4451 78.8057C45.8657 78.1777 46.4492 77.7 47.1954 77.3723C47.9553 77.0311 48.844 76.8604 49.8616 76.8604C50.8792 76.8604 51.7815 77.0379 52.5685 77.3928C53.369 77.7341 53.9932 78.2528 54.4409 78.9491C54.9022 79.6316 55.1329 80.4916 55.1329 81.5291V82.1434H52.4871V81.5291C52.4871 80.9831 52.3785 80.5462 52.1614 80.2186C51.9579 79.8773 51.6594 79.6316 51.2659 79.4815C50.8724 79.3176 50.4043 79.2357 49.8616 79.2357C49.0475 79.2357 48.4437 79.3927 48.0502 79.7067C47.6703 80.007 47.4804 80.4234 47.4804 80.9558C47.4804 81.3107 47.5686 81.611 47.7449 81.8568C47.9349 82.1025 48.213 82.3073 48.5794 82.4711C48.9457 82.6349 49.4138 82.7782 49.9837 82.9011L50.4518 83.0035C51.4694 83.2219 52.3514 83.5017 53.0976 83.843C53.8575 84.1843 54.4477 84.6348 54.8683 85.1945C55.2889 85.7542 55.4992 86.4709 55.4992 87.3446C55.4992 88.2183 55.2754 88.9896 54.8276 89.6585C54.3934 90.3137 53.7693 90.8325 52.9552 91.2147C52.1546 91.5833 51.2049 91.7676 50.1058 91.7676Z" fill="white"/>
<path d="M62.3874 91.7676C61.3834 91.7676 60.4811 91.5628 59.6806 91.1533C58.88 90.7438 58.2491 90.1499 57.7878 89.3718C57.3265 88.5937 57.0958 87.6586 57.0958 86.5665V86.2388C57.0958 85.1467 57.3265 84.2116 57.7878 83.4335C58.2491 82.6554 58.88 82.0615 59.6806 81.652C60.4811 81.2425 61.3834 81.0377 62.3874 81.0377C63.3915 81.0377 64.2938 81.2425 65.0943 81.652C65.8949 82.0615 66.5258 82.6554 66.9871 83.4335C67.4484 84.2116 67.6791 85.1467 67.6791 86.2388V86.5665C67.6791 87.6586 67.4484 88.5937 66.9871 89.3718C66.5258 90.1499 65.8949 90.7438 65.0943 91.1533C64.2938 91.5628 63.3915 91.7676 62.3874 91.7676ZM62.3874 89.4742C63.1744 89.4742 63.8257 89.2216 64.3413 88.7165C64.8569 88.1978 65.1147 87.4606 65.1147 86.505V86.3003C65.1147 85.3447 64.8569 84.6143 64.3413 84.1092C63.8392 83.5905 63.188 83.3311 62.3874 83.3311C61.6005 83.3311 60.9492 83.5905 60.4336 84.1092C59.918 84.6143 59.6602 85.3447 59.6602 86.3003V86.505C59.6602 87.4606 59.918 88.1978 60.4336 88.7165C60.9492 89.2216 61.6005 89.4742 62.3874 89.4742Z" fill="white"/>
<path d="M73.8928 91.6447C73.1058 91.6447 72.4138 91.4673 71.8168 91.1123C71.2334 90.7438 70.7789 90.2387 70.4532 89.597C70.1276 88.9554 69.9648 88.2183 69.9648 87.3855V81.3244H72.5292V87.1808C72.5292 87.9452 72.7124 88.5186 73.0787 88.9008C73.4586 89.2831 73.9946 89.4742 74.6865 89.4742C75.4735 89.4742 76.0841 89.2148 76.5183 88.6961C76.9525 88.1637 77.1695 87.4265 77.1695 86.4846V81.3244H79.734V91.4809H77.2103V90.1499H76.8439C76.6811 90.4912 76.3758 90.8257 75.928 91.1533C75.4803 91.4809 74.8019 91.6447 73.8928 91.6447Z" fill="white"/>
<path d="M82.5876 91.4809V81.3244H85.1113V82.6554H85.4777C85.6405 82.3004 85.9458 81.966 86.3935 81.652C86.8413 81.3244 87.5197 81.1606 88.4288 81.1606C89.2157 81.1606 89.9009 81.3448 90.4844 81.7134C91.0814 82.0684 91.5427 82.5666 91.8683 83.2082C92.194 83.8362 92.3568 84.5734 92.3568 85.4198V91.4809H89.7924V85.6245C89.7924 84.8601 89.6024 84.2867 89.2225 83.9045C88.8562 83.5222 88.327 83.3311 87.635 83.3311C86.8481 83.3311 86.2375 83.5973 85.8033 84.1297C85.3691 84.6485 85.152 85.3788 85.152 86.3207V91.4809H82.5876Z" fill="white"/>
<path d="M99.1995 91.7676C98.399 91.7676 97.6459 91.5696 96.9404 91.1738C96.2484 90.7642 95.6921 90.1704 95.2715 89.3923C94.8509 88.6142 94.6406 87.6722 94.6406 86.5665V86.2388C94.6406 85.1331 94.8509 84.1911 95.2715 83.413C95.6921 82.6349 96.2484 82.0479 96.9404 81.652C97.6324 81.2425 98.3854 81.0377 99.1995 81.0377C99.8101 81.0377 100.319 81.1128 100.726 81.2629C101.147 81.3995 101.486 81.5769 101.744 81.7953C102.001 82.0138 102.198 82.2458 102.334 82.4916H102.7V77.1471H105.265V91.4809H102.741V90.2523H102.375C102.144 90.6345 101.784 90.9826 101.296 91.2966C100.821 91.6106 100.122 91.7676 99.1995 91.7676ZM99.9729 89.5151C100.76 89.5151 101.418 89.2626 101.947 88.7575C102.476 88.2387 102.741 87.4879 102.741 86.505V86.3003C102.741 85.3174 102.476 84.5734 101.947 84.0683C101.432 83.5495 100.773 83.2902 99.9729 83.2902C99.1859 83.2902 98.5279 83.5495 97.9987 84.0683C97.4696 84.5734 97.205 85.3174 97.205 86.3003V86.505C97.205 87.4879 97.4696 88.2387 97.9987 88.7575C98.5279 89.2626 99.1859 89.5151 99.9729 89.5151Z" fill="white"/>
</svg>
