<svg width="81" height="71" viewBox="0 0 81 71" fill="none" xmlns="http://www.w3.org/2000/svg">
<path d="M0.747296 13.9941C1.33998 18.2633 1.47741 22.5844 1.49459 26.8881C1.47741 31.1919 1.34857 35.513 0.747296 39.7822C0.146023 35.513 0.0171792 31.1919 0 26.8881C0.0171792 22.5844 0.154613 18.2633 0.747296 13.9941Z" fill="black"/>
<path d="M6.38208 8.7656C6.97476 14.7892 7.1122 20.8473 7.12937 26.8881C7.1122 32.9376 6.98335 38.9957 6.38208 45.0107C5.78081 38.9871 5.65196 32.929 5.63478 26.8881C5.65196 20.8386 5.7894 14.7892 6.38208 8.7656Z" fill="black"/>
<path d="M12.0169 5.00628C13.0476 19.5683 13.0562 34.1994 12.0169 48.7613C10.9775 34.1994 10.9861 19.5683 12.0169 5.00628Z" fill="black"/>
<path d="M17.6431 2.7334C18.6738 18.8164 18.6824 34.9599 17.6431 51.0429C16.6037 34.9599 16.6123 18.8164 17.6431 2.7334Z" fill="black"/>
<path d="M23.2778 0.953125C24.3086 18.2201 24.3172 35.5562 23.2778 52.8231C22.2385 35.5562 22.2471 18.2201 23.2778 0.953125Z" fill="black"/>
<path d="M28.9126 0.953125C29.9434 18.2201 29.952 35.5562 28.9126 52.8231C27.8733 35.5562 27.8819 18.2201 28.9126 0.953125Z" fill="black"/>
<path d="M34.5388 0.953125C35.5696 18.2201 35.5782 35.5562 34.5388 52.8231C33.4995 35.5562 33.5081 18.2201 34.5388 0.953125Z" fill="black"/>
<path d="M40.1736 3.07044C41.2044 18.9201 41.2129 34.8389 40.1736 50.6972C39.1343 34.8475 39.1428 18.9287 40.1736 3.07044Z" fill="black"/>
<path d="M45.8084 4.89393C46.8391 19.5337 46.8477 34.2426 45.8084 48.8823C44.769 34.2426 44.7776 19.5337 45.8084 4.89393Z" fill="black"/>
<path d="M51.4346 8.87795C52.0273 14.8669 52.1647 20.8819 52.1819 26.8881C52.1647 32.8944 52.0358 38.918 51.4346 44.8983C50.8333 38.918 50.7045 32.8944 50.6873 26.8881C50.7045 20.8819 50.8419 14.8583 51.4346 8.87795Z" fill="black"/>
<path d="M57.0694 11.0385C57.662 16.3015 57.7995 21.5991 57.8167 26.8881C57.7995 32.1771 57.6706 37.4747 57.0694 42.7378C56.4681 37.4747 56.3392 32.1771 56.3221 26.8881C56.3392 21.5991 56.4767 16.3015 57.0694 11.0385Z" fill="black"/>
<path d="M62.7041 11.8336C63.2968 16.8287 63.4343 21.8584 63.4514 26.8881C63.4343 31.9092 63.3054 36.9476 62.7041 41.9427C62.1029 36.9476 61.974 31.9092 61.9568 26.8881C61.974 21.8671 62.1115 16.8287 62.7041 11.8336Z" fill="black"/>
<path d="M68.3303 8.64461C68.923 14.7027 69.0604 20.7954 69.0776 26.8795C69.0604 32.9635 68.9316 39.0562 68.3303 45.1144C67.7291 39.0562 67.6002 32.9635 67.583 26.8795C67.6002 20.7954 67.7376 14.7027 68.3303 8.64461Z" fill="black"/>
<path d="M73.9651 3.52848C74.9959 19.0756 75.0045 34.692 73.9651 50.2391C72.9258 34.692 72.9344 19.0756 73.9651 3.52848Z" fill="black"/>
<path d="M79.5999 0.953125C80.6307 18.2201 80.6392 35.5562 79.5999 52.8231C78.5606 35.5562 78.5691 18.2201 79.5999 0.953125Z" fill="black"/>
<path d="M0 69.8314V59.0391H6.7425V60.8892H2.02275V63.4948H6.37473V65.3449H2.02275V69.8314H0Z" fill="black"/>
<path d="M8.24699 69.8314V62.1843H10.1778V69.8314H8.24699ZM9.21239 61.29C8.86505 61.29 8.56879 61.177 8.32361 60.9509C8.08864 60.7247 7.97116 60.4267 7.97116 60.0566C7.97116 59.6866 8.08864 59.3886 8.32361 59.1624C8.56879 58.9363 8.86505 58.8232 9.21239 58.8232C9.56995 58.8232 9.86621 58.9363 10.1012 59.1624C10.3361 59.3886 10.4536 59.6866 10.4536 60.0566C10.4536 60.4267 10.3361 60.7247 10.1012 60.9509C9.86621 61.177 9.56995 61.29 9.21239 61.29Z" fill="black"/>
<path d="M15.4741 70.0472C14.4832 70.0472 13.671 69.8314 13.0376 69.3997C12.4042 68.968 12.0211 68.3513 11.8883 67.5496L13.6659 67.087C13.7374 67.4468 13.8549 67.7294 14.0183 67.935C14.192 68.1406 14.4014 68.2896 14.6466 68.3821C14.902 68.4643 15.1778 68.5055 15.4741 68.5055C15.9236 68.5055 16.2556 68.4284 16.4702 68.2742C16.6847 68.1097 16.792 67.9093 16.792 67.6729C16.792 67.4365 16.6898 67.2566 16.4855 67.1333C16.2812 66.9997 15.9543 66.8918 15.5048 66.8095L15.0757 66.7324C14.5445 66.6297 14.0592 66.4909 13.6199 66.3162C13.1806 66.1312 12.8282 65.8793 12.5626 65.5607C12.297 65.2421 12.1642 64.8309 12.1642 64.3273C12.1642 63.5667 12.44 62.986 12.9916 62.5851C13.5433 62.174 14.2686 61.9684 15.1676 61.9684C16.0155 61.9684 16.7204 62.1586 17.2823 62.5389C17.8442 62.9192 18.212 63.4177 18.3856 64.0344L16.5927 64.5894C16.511 64.1988 16.3425 63.9213 16.0871 63.7569C15.8419 63.5924 15.5354 63.5102 15.1676 63.5102C14.7999 63.5102 14.5189 63.577 14.3248 63.7106C14.1307 63.8339 14.0337 64.0087 14.0337 64.2348C14.0337 64.4815 14.1358 64.6665 14.3401 64.7898C14.5445 64.9029 14.8203 64.9903 15.1676 65.0519L15.5967 65.129C16.1688 65.2318 16.6847 65.3706 17.1444 65.5453C17.6143 65.7097 17.9821 65.9513 18.2477 66.2699C18.5236 66.5783 18.6615 66.9997 18.6615 67.5342C18.6615 68.3359 18.3703 68.9577 17.788 69.3997C17.2159 69.8314 16.4446 70.0472 15.4741 70.0472Z" fill="black"/>
<path d="M20.3534 69.8314V59.0391H22.2842V63.1247H22.5601C22.6418 62.9603 22.7695 62.7958 22.9432 62.6314C23.1168 62.4669 23.3467 62.3333 23.6327 62.2305C23.929 62.1175 24.3019 62.0609 24.7514 62.0609C25.3439 62.0609 25.8598 62.1997 26.2991 62.4772C26.7486 62.7444 27.0959 63.1196 27.3411 63.6027C27.5863 64.0755 27.7089 64.6305 27.7089 65.2678V69.8314H25.7781V65.422C25.7781 64.8464 25.6351 64.4147 25.349 64.1269C25.0732 63.8391 24.6748 63.6952 24.1538 63.6952C23.5612 63.6952 23.1015 63.8956 22.7746 64.2965C22.4477 64.687 22.2842 65.2369 22.2842 65.9461V69.8314H20.3534Z" fill="black"/>
<path d="M37.3494 70.0472C36.5219 70.0472 35.7915 69.8982 35.1581 69.6001C34.5247 69.302 34.0292 68.8755 33.6717 68.3204C33.3141 67.7654 33.1353 67.0973 33.1353 66.3162V65.8845H35.1274V66.3162C35.1274 66.9637 35.3266 67.4519 35.7251 67.7808C36.1235 68.0995 36.6649 68.2588 37.3494 68.2588C38.0441 68.2588 38.56 68.12 38.8971 67.8425C39.2444 67.565 39.4181 67.2104 39.4181 66.7787C39.4181 66.4806 39.3313 66.2391 39.1576 66.0541C38.9942 65.8691 38.749 65.72 38.4221 65.607C38.1054 65.4836 37.7172 65.3706 37.2575 65.2678L36.905 65.1907C36.1695 65.0262 35.5361 64.8207 35.0048 64.574C34.4838 64.317 34.0803 63.983 33.7943 63.5718C33.5184 63.1607 33.3805 62.6262 33.3805 61.9684C33.3805 61.3106 33.5337 60.7504 33.8402 60.2879C34.1569 59.8151 34.5962 59.4554 35.1581 59.2087C35.7302 58.9517 36.3993 58.8232 37.1655 58.8232C37.9317 58.8232 38.6111 58.9569 39.2036 59.2241C39.8063 59.4811 40.2762 59.8716 40.6134 60.3958C40.9607 60.9097 41.1344 61.5573 41.1344 62.3384V62.801H39.1423V62.3384C39.1423 61.9273 39.0606 61.5984 38.8971 61.3517C38.7439 61.0948 38.5191 60.9097 38.2229 60.7967C37.9266 60.6733 37.5741 60.6117 37.1655 60.6117C36.5526 60.6117 36.0979 60.7299 35.8017 60.9663C35.5156 61.1924 35.3726 61.5059 35.3726 61.9068C35.3726 62.174 35.439 62.4001 35.5718 62.5851C35.7148 62.7701 35.9243 62.9243 36.2001 63.0476C36.4759 63.171 36.8284 63.2789 37.2575 63.3714L37.6099 63.4485C38.3761 63.613 39.0401 63.8237 39.602 64.0806C40.1741 64.3376 40.6185 64.6768 40.9352 65.0982C41.2519 65.5196 41.4102 66.0592 41.4102 66.717C41.4102 67.3748 41.2417 67.9556 40.9045 68.4592C40.5776 68.9526 40.1077 69.3431 39.4947 69.6309C38.892 69.9085 38.1769 70.0472 37.3494 70.0472Z" fill="black"/>
<path d="M46.5965 70.0472C45.8405 70.0472 45.1612 69.893 44.5584 69.5847C43.9557 69.2763 43.4807 68.8292 43.1333 68.2434C42.786 67.6575 42.6123 66.9534 42.6123 66.1312V65.8845C42.6123 65.0622 42.786 64.3581 43.1333 63.7723C43.4807 63.1864 43.9557 62.7393 44.5584 62.4309C45.1612 62.1226 45.8405 61.9684 46.5965 61.9684C47.3525 61.9684 48.0318 62.1226 48.6346 62.4309C49.2373 62.7393 49.7124 63.1864 50.0597 63.7723C50.407 64.3581 50.5807 65.0622 50.5807 65.8845V66.1312C50.5807 66.9534 50.407 67.6575 50.0597 68.2434C49.7124 68.8292 49.2373 69.2763 48.6346 69.5847C48.0318 69.893 47.3525 70.0472 46.5965 70.0472ZM46.5965 68.3204C47.189 68.3204 47.6794 68.1303 48.0676 67.75C48.4558 67.3594 48.6499 66.8044 48.6499 66.0849V65.9307C48.6499 65.2112 48.4558 64.6614 48.0676 64.2811C47.6896 63.8905 47.1992 63.6952 46.5965 63.6952C46.004 63.6952 45.5136 63.8905 45.1254 64.2811C44.7372 64.6614 44.5431 65.2112 44.5431 65.9307V66.0849C44.5431 66.8044 44.7372 67.3594 45.1254 67.75C45.5136 68.1303 46.004 68.3204 46.5965 68.3204Z" fill="black"/>
<path d="M55.2592 69.9547C54.6666 69.9547 54.1456 69.8211 53.6961 69.5539C53.2568 69.2763 52.9146 68.896 52.6694 68.413C52.4242 67.9299 52.3017 67.3748 52.3017 66.7479V62.1843H54.2325V66.5937C54.2325 67.1693 54.3704 67.601 54.6462 67.8888C54.9322 68.1766 55.3358 68.3204 55.8568 68.3204C56.4493 68.3204 56.909 68.1252 57.2359 67.7346C57.5628 67.3337 57.7263 66.7787 57.7263 66.0695V62.1843H59.6571V69.8314H57.7569V68.8292H57.4811C57.3585 69.0862 57.1287 69.338 56.7915 69.5847C56.4544 69.8314 55.9436 69.9547 55.2592 69.9547Z" fill="black"/>
<path d="M61.8057 69.8314V62.1843H63.7058V63.1864H63.9817C64.1042 62.9192 64.3341 62.6673 64.6712 62.4309C65.0084 62.1843 65.5192 62.0609 66.2036 62.0609C66.7961 62.0609 67.312 62.1997 67.7513 62.4772C68.2008 62.7444 68.5482 63.1196 68.7934 63.6027C69.0385 64.0755 69.1611 64.6305 69.1611 65.2678V69.8314H67.2303V65.422C67.2303 64.8464 67.0873 64.4147 66.8013 64.1269C66.5254 63.8391 66.127 63.6952 65.606 63.6952C65.0135 63.6952 64.5538 63.8956 64.2268 64.2965C63.8999 64.687 63.7365 65.2369 63.7365 65.9461V69.8314H61.8057Z" fill="black"/>
<path d="M74.3132 70.0472C73.7104 70.0472 73.1434 69.8982 72.6122 69.6001C72.0912 69.2918 71.6724 68.8446 71.3557 68.2588C71.039 67.6729 70.8806 66.9637 70.8806 66.1312V65.8845C70.8806 65.0519 71.039 64.3427 71.3557 63.7569C71.6724 63.171 72.0912 62.729 72.6122 62.4309C73.1332 62.1226 73.7002 61.9684 74.3132 61.9684C74.7729 61.9684 75.156 62.025 75.4625 62.138C75.7792 62.2408 76.0346 62.3744 76.2287 62.5389C76.4228 62.7033 76.5709 62.8781 76.673 63.0631H76.9489V59.0391H78.8797V69.8314H76.9795V68.9063H76.7037C76.53 69.1941 76.2593 69.4562 75.8915 69.6926C75.534 69.929 75.0079 70.0472 74.3132 70.0472ZM74.8955 68.3513C75.488 68.3513 75.9835 68.1611 76.3819 67.7808C76.7803 67.3903 76.9795 66.8249 76.9795 66.0849V65.9307C76.9795 65.1907 76.7803 64.6305 76.3819 64.2502C75.9937 63.8596 75.4982 63.6644 74.8955 63.6644C74.303 63.6644 73.8075 63.8596 73.4091 64.2502C73.0106 64.6305 72.8114 65.1907 72.8114 65.9307V66.0849C72.8114 66.8249 73.0106 67.3903 73.4091 67.7808C73.8075 68.1611 74.303 68.3513 74.8955 68.3513Z" fill="black"/>
</svg>
